<?xml version="1.0" standalone="no"?>
<!DOCTYPE svg PUBLIC "-//W3C//DTD SVG 20010904//EN"
 "http://www.w3.org/TR/2001/REC-SVG-20010904/DTD/svg10.dtd">
<svg version="1.0" xmlns="http://www.w3.org/2000/svg"
 width="611.000000pt" height="630.000000pt" viewBox="0 0 611.000000 630.000000"
 preserveAspectRatio="xMidYMid meet">

<g transform="translate(0.000000,630.000000) scale(0.100000,-0.100000)"
fill="#000000" stroke="none">
<path d="M2998 5315 c-2 -1 -33 -5 -69 -8 -264 -22 -597 -122 -848 -254 -1024
-537 -1524 -1698 -1206 -2801 42 -149 100 -294 176 -444 56 -110 60 -121 49
-152 -25 -76 -117 -186 -254 -301 -54 -47 -59 -53 -63 -100 -9 -96 48 -142
236 -193 168 -44 479 -34 584 20 14 7 32 -2 86 -45 289 -234 648 -400 1028
-477 785 -158 1586 85 2159 655 455 454 701 1031 707 1660 2 220 -6 328 -39
493 -93 476 -317 900 -651 1236 -467 470 -1070 720 -1730 715 -89 0 -163 -2
-165 -4z m753 -152 c13 -16 12 -17 -3 -4 -17 13 -22 21 -14 21 2 0 10 -8 17
-17z m152 -46 c3 -7 -3 -13 -14 -14 -15 -1 -16 1 -6 12 15 18 14 18 20 2z
m111 -48 c-4 -8 1 -9 17 -5 23 7 23 7 5 -8 -26 -21 -35 -20 -31 2 5 23 4 22
11 22 3 0 2 -5 -2 -11z m79 -17 c3 7 4 3 4 -9 -1 -12 -4 -20 -8 -17 -4 2 -9 1
-12 -3 -2 -5 -2 -2 0 6 2 9 -3 12 -17 8 -18 -4 -19 -3 -9 9 8 10 15 11 24 4 9
-8 14 -7 18 2z m37 -32 c5 0 26 -11 46 -25 24 -16 44 -23 57 -19 14 4 18 2 15
-7 -3 -8 -14 -14 -25 -14 -12 0 -24 -2 -27 -5 -9 -10 38 -5 54 5 20 13 41 15
34 4 -3 -5 -10 -6 -16 -3 -7 4 -8 2 -4 -5 4 -6 13 -11 19 -10 30 4 57 -2 57
-12 0 -5 -5 -7 -12 -3 -7 4 -8 3 -4 -5 6 -9 11 -9 22 0 12 10 14 10 12 -1 -2
-7 12 -18 31 -24 23 -8 31 -15 23 -20 -7 -4 -19 -2 -27 4 -26 22 -16 4 12 -19
17 -15 24 -18 20 -8 -3 9 1 18 9 21 9 4 14 -2 14 -17 0 -13 3 -17 8 -11 5 8
15 6 34 -6 16 -9 25 -20 21 -24 -4 -4 -1 -5 7 -2 21 8 64 -30 56 -49 -3 -9 -2
-13 3 -10 5 3 21 0 35 -6 22 -10 24 -15 13 -28 -11 -14 -10 -14 6 -2 17 13 22
12 50 -17 18 -17 86 -83 152 -147 66 -63 116 -115 112 -115 -5 0 5 -12 21 -27
34 -34 107 -123 99 -123 -3 0 7 -14 23 -32 16 -17 27 -35 25 -39 -3 -4 2 -9
10 -13 8 -3 15 -12 15 -21 0 -8 5 -15 11 -15 5 0 7 -4 4 -10 -3 -5 -1 -10 5
-10 7 0 9 -7 6 -16 -3 -8 -2 -12 4 -9 7 5 55 -74 62 -102 1 -5 9 -16 18 -25
25 -27 102 -207 94 -220 -5 -7 -3 -8 5 -4 8 5 11 3 10 -5 -2 -8 5 -29 14 -46
10 -18 17 -34 16 -35 0 -2 5 -16 11 -32 6 -16 8 -31 5 -34 -2 -3 0 -11 5 -17
15 -18 48 -143 53 -200 1 -11 6 -26 11 -34 5 -7 5 -16 0 -20 -16 -11 -15 -33
2 -52 9 -11 13 -19 7 -19 -5 0 -10 -7 -10 -15 0 -8 5 -11 10 -8 6 4 8 -3 5
-15 -4 -12 -2 -22 4 -22 5 0 6 -10 3 -21 -6 -16 -4 -20 6 -14 11 6 12 5 2 -6
-14 -14 -18 -53 -5 -45 5 3 9 -1 9 -9 0 -8 -5 -11 -10 -8 -9 6 -6 -48 5 -87 3
-8 3 -12 1 -7 -3 4 -8 5 -13 2 -4 -3 -6 5 -3 17 4 23 4 23 -10 -1 -12 -20 -15
-21 -20 -7 -5 12 -3 15 5 10 8 -5 9 -2 5 9 -3 10 -3 17 1 17 11 0 8 95 -3 97
-5 1 -9 -9 -8 -22 1 -14 -1 -25 -5 -25 -15 0 -52 32 -52 44 0 8 -7 16 -15 20
-9 3 -15 19 -15 41 0 19 -5 35 -10 35 -6 0 -24 10 -40 22 -21 15 -30 30 -30
50 0 18 -4 26 -13 22 -8 -3 -20 9 -29 29 -21 45 -54 54 -71 21 -13 -24 -13
-24 -13 12 0 20 2 32 4 26 6 -19 22 -14 22 7 0 10 -7 21 -15 25 -8 3 -15 0
-15 -6 0 -6 -3 -9 -6 -5 -3 3 -1 14 5 24 7 12 10 14 11 4 0 -8 2 -12 5 -9 3 3
0 17 -6 32 -11 24 -21 31 -42 27 -4 -1 -7 7 -5 16 2 10 -2 17 -7 16 -6 -1 -12
7 -12 18 -2 21 13 26 20 7 2 -7 3 6 3 28 0 43 -10 49 -40 25 -14 -12 -16 -12
-10 3 4 11 -1 23 -12 32 -11 9 -13 13 -6 9 6 -3 12 -3 12 2 0 13 -17 35 -26
34 -5 -1 -9 2 -9 7 0 4 -3 12 -6 17 -4 6 -5 18 -4 28 2 9 -1 17 -6 17 -5 0 -3
13 6 30 13 25 13 29 1 24 -8 -3 -17 -13 -19 -22 -4 -13 -5 -12 -6 4 0 11 4 25
11 32 7 7 8 12 2 12 -5 0 -15 -5 -21 -11 -7 -7 -12 -6 -17 6 -4 11 -2 14 7 10
6 -4 2 2 -10 13 -16 14 -19 22 -11 30 8 8 5 9 -11 5 -17 -4 -21 -1 -21 16 0
31 -19 63 -32 55 -6 -4 -8 -3 -5 3 4 6 0 14 -9 17 -8 3 -12 10 -9 16 3 6 -1
13 -10 16 -14 6 -13 8 5 21 11 8 20 20 19 26 0 9 -2 8 -6 -1 -2 -6 -10 -9 -15
-6 -7 4 -8 2 -4 -4 4 -7 3 -12 -3 -12 -16 0 -62 61 -54 73 4 7 0 8 -11 4 -13
-5 -17 -3 -13 7 4 9 -1 17 -13 21 -10 3 -21 13 -24 22 -5 13 -4 14 8 4 11 -9
16 -9 22 0 4 8 3 9 -4 5 -6 -4 -17 2 -23 13 -8 11 -19 17 -28 13 -9 -3 -13 -2
-10 2 4 4 -7 20 -23 37 -20 20 -28 36 -25 49 5 21 -7 27 -19 9 -4 -7 -14 1
-26 19 -11 17 -28 34 -39 37 -10 4 -19 13 -19 21 0 8 -4 12 -10 9 -6 -3 -7 1
-4 9 3 9 11 13 18 9 6 -3 7 -2 3 3 -12 12 -30 12 -39 -1 -5 -6 -8 -5 -8 3 0
21 -32 50 -38 34 -2 -7 -8 -9 -13 -6 -6 3 -4 11 4 17 12 10 13 17 1 42 -7 17
-13 25 -14 18 0 -6 -9 -9 -21 -6 -16 4 -17 8 -7 14 7 5 9 9 4 9 -5 0 -17 -7
-27 -16 -13 -12 -19 -12 -25 -3 -4 7 -3 10 4 5 6 -3 13 -2 17 4 3 5 3 10 -2
11 -4 0 -18 2 -31 5 -16 3 -21 0 -16 -8 4 -7 3 -8 -4 -4 -16 9 -2 38 14 32 19
-8 41 -14 32 -9 -4 2 -14 27 -23 54 -10 28 -23 53 -31 56 -8 3 -14 14 -14 24
0 11 -7 19 -16 19 -9 0 -18 9 -21 20 -3 11 -14 20 -24 20 -15 0 -19 7 -19 40
0 33 -3 40 -20 40 -12 0 -20 7 -20 16 0 9 -9 18 -21 21 -15 4 -20 12 -17 28 4
17 1 21 -12 18 -13 -3 -19 4 -23 29 -3 18 -7 40 -10 48 -2 8 -2 12 0 8 3 -5 9
-8 13 -8z m92 -28 c9 -9 9 -12 0 -12 -7 0 -12 5 -12 11 0 5 -4 8 -8 5 -4 -2
-14 0 -22 5 -11 7 -10 8 8 6 12 -2 28 -9 34 -15z m-887 -146 c329 -20 689
-150 974 -354 111 -79 296 -254 383 -361 411 -509 536 -1209 327 -1836 -307
-923 -1259 -1469 -2222 -1274 -295 59 -604 208 -842 403 -78 65 -74 64 -194
22 -40 -14 -115 -31 -165 -37 -98 -12 -266 -4 -266 13 0 5 11 24 25 42 37 48
85 161 101 235 18 89 18 216 -2 304 -9 40 -39 127 -65 195 -357 892 -13 1903
811 2390 205 121 430 201 679 242 77 13 284 27 336 23 17 -1 71 -4 120 -7z
m775 -70 c0 -2 -8 -10 -17 -17 -16 -13 -17 -12 -4 4 13 16 21 21 21 13z m34
-27 c-3 -6 0 -15 7 -20 11 -7 11 -9 1 -9 -7 0 -11 -4 -7 -9 3 -5 0 -13 -6 -17
-8 -4 -9 -3 -5 4 4 7 1 12 -6 13 -10 0 -10 2 0 6 6 2 10 9 6 14 -5 9 3 29 12
29 3 0 2 -5 -2 -11z m130 -61 c-3 -4 -18 -6 -35 -4 -16 2 -32 0 -35 -5 -3 -5
0 -9 7 -9 7 0 10 -3 6 -6 -11 -11 -29 7 -18 19 10 13 82 17 75 5z m26 -3 c0
-8 -4 -15 -10 -15 -5 0 -7 7 -4 15 4 8 8 15 10 15 2 0 4 -7 4 -15z m17 -24
c-1 -17 -5 -27 -9 -23 -7 7 0 52 8 52 2 0 2 -13 1 -29z m-19 -32 c20 -32 10
-30 -16 2 -13 16 -17 27 -10 24 7 -3 19 -15 26 -26z m66 -18 c4 -5 -3 -7 -14
-4 -23 6 -26 13 -6 13 8 0 17 -4 20 -9z m88 -86 c2 3 5 -2 5 -10 0 -10 -4 -12
-12 -5 -7 5 -15 7 -18 3 -4 -3 -7 2 -7 12 0 13 3 15 13 6 8 -6 16 -9 19 -6z
m648 -895 c-24 -15 -31 -11 -18 10 9 13 16 16 23 9 7 -7 5 -13 -5 -19z m79
-264 c-9 -8 -10 -7 -5 7 3 10 7 24 7 30 1 7 3 4 6 -7 3 -10 -1 -23 -8 -30z
m296 -46 c3 -5 1 -10 -4 -10 -6 0 -11 5 -11 10 0 6 2 10 4 10 3 0 8 -4 11 -10z
m-282 -55 c-3 -9 -8 -14 -10 -11 -3 3 -2 9 2 15 9 16 15 13 8 -4z m267 -155
c0 -5 -5 -10 -11 -10 -5 0 -7 5 -4 10 3 6 8 10 11 10 2 0 4 -4 4 -10z m44 -26
c3 -8 2 -12 -4 -9 -6 3 -10 10 -10 16 0 14 7 11 14 -7z m-35 -124 c0 -9 -6 -4
-14 10 -19 33 -19 49 0 24 8 -10 14 -26 14 -34z m18 3 c-3 -10 -5 -4 -5 12 0
17 2 24 5 18 2 -7 2 -21 0 -30z m10 -70 c-3 -10 -5 -2 -5 17 0 19 2 27 5 18 2
-10 2 -26 0 -35z"/>
<path d="M4167 4969 c7 -7 15 -10 18 -7 3 3 -2 9 -12 12 -14 6 -15 5 -6 -5z"/>
<path d="M4230 4904 c0 -12 4 -12 20 -4 11 6 20 12 20 13 0 2 -9 3 -20 4 -12
1 -20 -4 -20 -13z"/>
<path d="M4320 4896 c0 -2 9 -6 20 -9 11 -3 18 -1 14 4 -5 9 -34 13 -34 5z"/>
<path d="M4436 4817 c3 -10 9 -15 12 -12 3 3 0 11 -7 18 -10 9 -11 8 -5 -6z"/>
<path d="M4720 4594 c0 -1 8 -8 17 -15 9 -8 14 -9 10 -2 -4 6 -1 13 5 16 7 3
3 4 -9 4 -13 -1 -23 -2 -23 -3z"/>
<path d="M4594 4405 c3 -21 16 -31 16 -12 0 9 -4 18 -9 21 -5 4 -8 -1 -7 -9z"/>
<path d="M4779 4202 c-11 -14 -11 -15 0 -5 7 6 20 9 27 6 8 -3 14 -3 14 0 0
14 -30 14 -41 -1z"/>
<path d="M4790 4180 c0 -5 5 -10 11 -10 5 0 7 5 4 10 -3 6 -8 10 -11 10 -2 0
-4 -4 -4 -10z"/>
<path d="M4817 4119 c7 -7 15 -10 18 -7 3 3 -2 9 -12 12 -14 6 -15 5 -6 -5z"/>
<path d="M4870 4060 c0 -6 7 -10 15 -10 8 0 15 2 15 4 0 2 -7 6 -15 10 -8 3
-15 1 -15 -4z"/>
<path d="M4910 4046 c0 -2 7 -9 15 -16 9 -7 15 -8 15 -2 0 5 -7 12 -15 16 -8
3 -15 4 -15 2z"/>
<path d="M4881 4037 c2 -1 13 -9 24 -17 19 -14 19 -14 6 3 -7 9 -18 17 -24 17
-6 0 -8 -1 -6 -3z"/>
<path d="M4939 3974 c-5 -15 -7 -29 -4 -32 3 -3 5 0 5 7 0 7 3 10 8 8 4 -3 7
6 7 19 0 31 -3 30 -16 -2z"/>
<path d="M5027 3775 c-4 -9 2 -19 13 -25 16 -8 20 -8 20 3 0 8 -6 20 -14 26
-10 9 -15 8 -19 -4z"/>
<path d="M5074 3734 c-12 -5 -7 -54 6 -54 4 0 7 13 6 30 -1 16 -1 30 -1 29 0
0 -5 -3 -11 -5z"/>
<path d="M5106 3715 c-3 -9 -6 -22 -5 -28 0 -7 5 -1 10 12 5 13 8 26 5 28 -2
2 -6 -3 -10 -12z"/>
<path d="M5188 3455 c2 -14 6 -25 8 -25 2 0 4 11 4 25 0 14 -4 25 -9 25 -4 0
-6 -11 -3 -25z"/>
<path d="M5220 3466 c0 -8 5 -18 10 -21 6 -3 10 3 10 14 0 12 -4 21 -10 21 -5
0 -10 -6 -10 -14z"/>
<path d="M1816 3709 c-64 -56 -66 -143 -4 -201 107 -100 273 23 209 155 -25
53 -65 77 -125 77 -36 0 -52 -6 -80 -31z"/>
<path d="M1841 3332 c-71 -38 -71 -36 -71 -517 0 -409 1 -432 20 -462 45 -75
148 -84 207 -19 l33 36 0 442 c0 427 -1 444 -20 476 -21 34 -72 62 -112 62
-13 0 -39 -8 -57 -18z m84 -80 c-3 -3 -11 0 -18 7 -9 10 -8 11 6 5 10 -3 15
-9 12 -12z"/>
<path d="M2231 3332 c-71 -38 -71 -36 -71 -517 0 -409 1 -432 20 -462 51 -84
179 -84 230 0 19 30 20 52 20 311 0 262 1 282 21 322 42 88 158 118 233 61 65
-50 66 -56 66 -354 0 -147 5 -284 10 -304 5 -19 24 -48 41 -65 26 -25 38 -29
89 -29 48 0 63 4 85 25 52 48 55 67 55 368 0 273 0 280 23 312 37 55 71 74
132 74 61 0 95 -19 133 -74 22 -32 22 -39 22 -312 0 -301 3 -320 55 -368 22
-21 37 -25 85 -25 51 0 63 4 89 29 17 17 36 46 41 65 13 47 13 508 0 591 -29
185 -175 330 -363 363 -106 18 -248 -20 -329 -88 l-29 -25 -46 35 c-73 56
-144 78 -248 79 -64 1 -106 -4 -144 -18 -53 -18 -54 -18 -91 3 -46 26 -85 27
-129 3z m1093 -95 c3 3 6 1 6 -6 0 -8 6 -11 16 -7 8 3 12 2 9 -4 -3 -6 1 -10
9 -10 16 0 22 -25 8 -34 -4 -2 -22 2 -39 9 -25 11 -31 18 -26 31 5 13 2 16 -9
12 -8 -4 -15 -1 -15 7 0 10 5 11 17 5 10 -5 20 -6 24 -3z m86 -63 c0 -8 4 -13
9 -10 5 4 22 -11 38 -31 38 -49 49 -68 35 -59 -6 3 -14 1 -18 -6 -5 -8 -10 -6
-16 8 -8 18 -8 18 -5 -1 2 -16 9 -19 32 -17 25 3 27 1 15 -13 -11 -13 -10 -15
2 -10 8 3 15 0 16 -7 4 -33 11 -68 15 -75 3 -5 -3 -10 -14 -10 -17 -2 -20 2
-19 23 1 3 -9 14 -22 24 -18 16 -20 21 -9 29 9 6 10 11 2 15 -6 4 -11 2 -11
-4 0 -6 -4 -8 -10 -5 -5 3 -10 1 -10 -5 0 -6 -11 1 -24 17 -13 15 -22 36 -21
45 3 12 -6 23 -26 33 -31 16 -34 22 -21 43 6 9 12 6 22 -13 7 -13 22 -27 32
-31 12 -3 17 -12 14 -21 -8 -20 4 -39 15 -22 4 7 3 22 -3 32 -8 16 -7 19 4 14
8 -3 15 1 15 8 0 10 -7 11 -25 4 -20 -8 -23 -7 -19 5 4 10 1 13 -7 10 -20 -8
-28 12 -14 35 13 21 28 19 28 -5z m-110 2 c0 -2 -8 -10 -17 -17 -16 -13 -17
-12 -4 4 13 16 21 21 21 13z m235 -256 c3 -5 1 -10 -4 -10 -6 0 -11 5 -11 10
0 6 2 10 4 10 3 0 8 -4 11 -10z"/>
<path d="M3327 3199 c7 -7 15 -10 18 -7 3 3 -2 9 -12 12 -14 6 -15 5 -6 -5z"/>
<path d="M3414 3053 c10 -13 23 -20 29 -16 7 4 6 8 -3 11 -8 3 -22 10 -30 16
-8 6 -7 1 4 -11z"/>
<path d="M4060 3335 c-75 -21 -153 -70 -207 -129 -90 -101 -113 -179 -113
-391 0 -207 24 -287 118 -388 86 -92 189 -137 312 -137 123 0 226 45 312 137
99 107 122 189 116 423 -3 141 -7 173 -26 222 -44 110 -142 208 -249 248 -75
28 -192 35 -263 15z m330 -140 c0 -12 -19 -12 -23 0 -4 9 -1 12 9 8 7 -3 14
-7 14 -8z m43 -57 c-2 -5 2 -8 9 -9 10 0 10 -2 -1 -6 -11 -4 -11 -7 0 -14 7
-4 10 -11 6 -15 -10 -11 -42 36 -43 64 -1 21 0 22 16 5 10 -10 16 -21 13 -25z
m47 -63 c14 -16 10 -18 -14 -9 -9 3 -16 10 -16 15 0 14 16 11 30 -6z m-240
-17 c70 -36 84 -70 89 -216 2 -79 -1 -140 -9 -168 -30 -107 -165 -149 -249
-78 -51 42 -64 94 -60 241 4 114 7 132 28 167 25 40 86 75 131 76 14 0 46 -10
70 -22z"/>
<path d="M4410 3141 c0 -6 4 -13 10 -16 6 -3 7 1 4 9 -7 18 -14 21 -14 7z"/>
</g>
</svg>
