<?xml version="1.0" encoding="utf-8"?><!-- Uploaded to: SVG Repo, www.svgrepo.com, Generator: SVG Repo Mixer Tools -->
<svg fill="#000000" width="800px" height="800px" viewBox="0 0 24 24" id="signal-5g" data-name="Line Color" xmlns="http://www.w3.org/2000/svg" class="icon line-color"><path id="secondary" d="M21,8V6a1,1,0,0,0-1-1H15a1,1,0,0,0-1,1V18a1,1,0,0,0,1,1h5a1,1,0,0,0,1-1V13a1,1,0,0,0-1-1H18" style="fill: none; stroke: rgb(44, 169, 188); stroke-linecap: round; stroke-linejoin: round; stroke-width: 2;"></path><path id="primary" d="M10,5H4A1,1,0,0,0,3,6v5a1,1,0,0,0,1,1H9a1,1,0,0,1,1,1v5a1,1,0,0,1-1,1H3" style="fill: none; stroke: rgb(0, 0, 0); stroke-linecap: round; stroke-linejoin: round; stroke-width: 2;"></path></svg>